<svg width="256" height="256" viewBox="0 0 256 256" fill="none" xmlns="http://www.w3.org/2000/svg">
<path d="M0 64C0 28.6538 29.715 0 66.3704 0H189.63C226.285 0 256 28.6538 256 64V192C256 227.346 226.285 256 189.63 256H66.3704C29.715 256 0 227.346 0 192V64Z" fill="url(#paint0_linear)"/>
<path d="M115.269 57.9552C60.4452 57.9552 56.6392 95.524 53 138.015H71.45C73.305 101.949 77.366 75.7462 115.269 75.7462C153.171 75.7462 157.232 101.949 159.087 138.015H177.537C173.898 95.524 170.092 57.9552 115.269 57.9552Z" fill="white"/>
<path d="M199.912 189.169L181.5 207.5C181.335 204.285 191 175.8 191 138C191 89 178.433 43 118.5 43C90.9136 43 73.5606 51.6063 63.0686 66C63.0686 42.7695 80.9635 23.6705 103.542 18.2072C108.927 16.9044 114.009 16 123.5 16C210.965 16 221.174 85 221.174 138C222.865 156.944 213.39 175.75 199.912 189.169Z" fill="white" fill-opacity="0.4"/>
<path fill-rule="evenodd" clip-rule="evenodd" d="M53.0601 149.134C53.0601 200.284 80.2418 226.97 115.298 226.97C150.355 226.97 177.537 200.284 177.537 149.134V142.463H53.0607C53.0607 143.215 53.0455 143.964 53.0303 144.711C52.9999 146.195 52.97 147.67 53.0601 149.134ZM124.164 179.095C126.894 176.652 128.612 173.101 128.612 169.149C128.612 161.78 122.638 155.806 115.268 155.806C107.899 155.806 101.925 161.78 101.925 169.149C101.925 173.101 103.643 176.652 106.373 179.095V195.836C106.373 200.749 110.355 204.731 115.268 204.731C120.182 204.731 124.164 200.749 124.164 195.836V179.095Z" fill="white"/>
<defs>
<linearGradient id="paint0_linear" x1="128" y1="-3.81668e-05" x2="253.856" y2="160.367" gradientUnits="userSpaceOnUse">
<stop stop-color="#479DFF"/>
<stop offset="1" stop-color="#64F1F8"/>
</linearGradient>
</defs>
</svg>
