<svg width="256" height="256" viewBox="0 0 256 256" fill="none" xmlns="http://www.w3.org/2000/svg">
    <path d="M0 64C0 28.6538 29.715 0 66.3704 0H189.63C226.285 0 256 28.6538 256 64V192C256 227.346 226.285 256 189.63 256H66.3704C29.715 256 0 227.346 0 192V64Z" fill="url(#paint0_linear)" />
    <path fill-rule="evenodd" clip-rule="evenodd" d="M93.8306 162.358L93.8356 174.226V177.177C93.8456 188.12 93.8557 200.534 93.8306 203.455C93.8306 206.131 92.5178 207.421 89.8521 207.466C84.5609 207.511 79.2244 207.511 73.9332 207.466C71.2172 207.466 70 206.176 70 203.455V81.3634C70 78.7326 71.1719 77.5823 73.8376 77.5823C78.3995 77.5823 82.9614 77.5623 87.5183 77.5423H87.5334C98.4176 77.4923 109.302 77.4422 120.186 77.6723C142.417 78.1374 158.95 94.3973 159.93 116.284C160.443 127.937 158.2 138.771 150.525 147.983C142.749 157.336 132.403 161.853 120.282 162.313C113.602 162.588 100.012 162.428 95.3646 162.373L93.8306 162.358ZM101.249 142.952L93.9211 142.962C93.9211 127.527 93.9211 112.368 93.9714 96.9331H114.568C124.869 96.9331 132.453 102.46 135.119 112.323C137.458 120.99 135.959 129.093 130.155 136.145C126.413 140.701 121.494 143.012 115.458 142.962C110.748 142.932 106.063 142.942 101.303 142.952L101.249 142.952Z" fill="white" />
    <path opacity="0.35" d="M121.266 59H70C72.9023 43.9081 86.108 33 101.476 33H121.266C166.621 33 204.377 67.7479 208.18 112.932C212.464 163.825 172.311 207.5 121.237 207.5V185.5C121.237 183.291 123.034 181.514 125.238 181.372C159.162 179.193 185.166 149.5 182.272 115.112C179.601 83.3827 153.095 59 121.266 59Z" fill="white" />
    <defs>
        <linearGradient id="paint0_linear" x1="98" y1="-2.87328e-06" x2="266.332" y2="128.093"
            gradientUnits="userSpaceOnUse">
            <stop stop-color="#35B8F3" />
            <stop offset="1" stop-color="#3399CD" />
        </linearGradient>
    </defs>
</svg>
