<svg width="256" height="256" viewBox="0 0 256 256" fill="none" xmlns="http://www.w3.org/2000/svg">
<path d="M0 64.0001C0 28.6538 29.715 6.10352e-05 66.3704 6.10352e-05H189.63C226.285 6.10352e-05 256 28.6538 256 64.0001V192C256 227.346 226.285 256 189.63 256H66.3704C29.715 256 0 227.346 0 192V64.0001Z" fill="url(#paint0_linear)"/>
<path fill-rule="evenodd" clip-rule="evenodd" d="M127.532 85.9772L97.712 117.852L105.492 162.988L122.457 145.834C125.25 143.009 129.813 143.009 132.607 145.834L149.572 162.988L157.352 117.852L127.532 85.9772ZM158.825 172.344L168.206 117.922C168.585 115.719 167.911 113.465 166.384 111.832L132.745 75.8759C129.924 72.8604 125.14 72.8605 122.319 75.8759L88.6803 111.832C87.153 113.465 86.4787 115.719 86.8584 117.922L96.2387 172.344L88.8646 179.8C87.1515 181.532 86.44 184.018 86.9776 186.395L95.9344 225.987C97.1958 231.563 104.173 233.468 108.093 229.306L127.532 208.67L146.971 229.306C150.891 233.468 157.868 231.563 159.13 225.987L168.086 186.395C168.624 184.018 167.913 181.532 166.199 179.8L158.825 172.344ZM145.443 174.04L127.532 193.054L109.621 174.04L127.532 155.93L145.443 174.04ZM102.087 181.658L97.8528 185.939L104.898 217.082L120.177 200.862L102.087 181.658ZM134.887 200.862L152.977 181.658L157.211 185.939L150.166 217.082L134.887 200.862Z" fill="white"/>
<path fill-rule="evenodd" clip-rule="evenodd" d="M127.532 129.378C131.143 129.378 134.07 126.451 134.07 122.84C134.07 119.229 131.143 116.301 127.532 116.301C123.921 116.301 120.994 119.229 120.994 122.84C120.994 126.451 123.921 129.378 127.532 129.378ZM127.532 140.086C137.057 140.086 144.778 132.365 144.778 122.84C144.778 113.315 137.057 105.594 127.532 105.594C118.007 105.594 110.286 113.315 110.286 122.84C110.286 132.365 118.007 140.086 127.532 140.086Z" fill="white"/>
<path opacity="0.32" fill-rule="evenodd" clip-rule="evenodd" d="M121.518 24.9208C124.451 21.7278 129.481 21.709 132.437 24.8799L185.795 82.1166C193.651 90.5435 193.22 103.735 184.831 111.631V111.631L129.907 56.1651C128.3 54.5423 125.663 54.5921 124.119 56.2743L73.2923 111.631V111.631C63.4357 103.938 62.2381 89.472 70.6953 80.2627L121.518 24.9208Z" fill="white"/>
<defs>
<linearGradient id="paint0_linear" x1="128" y1="2.28684e-05" x2="253.856" y2="160.367" gradientUnits="userSpaceOnUse">
<stop stop-color="#3CBEFF"/>
<stop offset="1" stop-color="#0686D8"/>
</linearGradient>
</defs>
</svg>
