<svg width="256" height="256" viewBox="0 0 256 256" fill="none" xmlns="http://www.w3.org/2000/svg">
    <path d="M0 64C0 28.6538 29.715 0 66.3704 0H189.63C226.285 0 256 28.6538 256 64V192C256 227.346 226.285 256 189.63 256H66.3704C29.715 256 0 227.346 0 192V64Z" fill="url(#paint0_linear)" />
    <path fill-rule="evenodd" clip-rule="evenodd" d="M99.4524 186L150.723 134.461L99.4524 83C112.212 83 124.971 83 137.73 83L189 134.461L137.73 186C124.971 186 112.212 186 99.4524 186ZM32 186L83.2701 134.461L32 83C44.7592 83 57.5183 83 70.2775 83L121.548 134.461L70.2775 186C57.5183 186 44.7592 186 32 186Z" fill="white" />
    <path opacity="0.35" d="M143.672 69H94.5L109.412 53.4107C113.939 48.6772 120.205 46 126.755 46H150.5C154.851 46 163.5 46 170.5 52.5C177.5 59 236.464 121.235 236.464 121.235L239.33 124.136C243.988 128.85 243.943 136.448 239.229 141.106L184.356 197.575C182.85 199.125 180.78 200 178.619 200H148L208.8 138.743C211.937 135.582 211.889 130.467 208.693 127.366L152.028 72.3875C149.789 70.215 146.792 69 143.672 69Z" fill="white" />
    <defs>
        <linearGradient id="paint0_linear" x1="134" y1="251" x2="12.4545" y2="92.3566" gradientUnits="userSpaceOnUse">
            <stop stop-color="#CC1626" />
            <stop offset="1" stop-color="#EA4A58" />
        </linearGradient>
    </defs>
</svg>
