<svg width="256" height="256" viewBox="0 0 256 256" fill="none" xmlns="http://www.w3.org/2000/svg">
<path d="M0 64C0 28.6538 29.715 0 66.3704 0H189.63C226.285 0 256 28.6538 256 64V192C256 227.346 226.285 256 189.63 256H66.3704C29.715 256 0 227.346 0 192V64Z" fill="url(#paint0_linear)"/>
<path opacity="0.53" d="M99.0754 68.9185L52.5 90L42.4079 67.8936C42.1815 67.3975 42.3942 66.8115 42.8862 66.5762L65 56L56.2658 37.6997C55.3916 35.8682 56.5503 33.7152 58.5605 33.436L126.5 24L197.905 33.4577C199.926 33.7253 201.097 35.8871 200.218 37.7261L191 57L209.287 65.3122C211.326 66.239 212.207 68.6591 211.24 70.6795L202 90L157.423 70.4059C156.915 70.1823 156.686 69.5868 156.914 69.0801L161 60L127.5 52L96 60L99.5679 67.5817C99.8055 68.0866 99.5838 68.6884 99.0754 68.9185Z" fill="white"/>
<path d="M156.116 213.702L152.88 212.461L153.771 209.11L154.756 205.456C150.325 207.72 145.683 209.549 140.897 210.914C138.553 211.57 136.864 211.875 136.864 211.875V214.241C133.979 214.709 131.063 214.96 128.141 214.991H127.883C124.96 214.96 122.044 214.709 119.16 214.241V211.898C119.16 211.898 117.448 211.57 115.103 210.914C110.316 209.549 105.675 207.721 101.244 205.456L102.205 209.11L103.12 212.461L99.8605 213.702L96.343 215.038C101.18 217.545 106.225 219.63 111.421 221.269L110.178 224.643C115.84 226.807 121.869 227.849 127.93 227.712H128.07C134.131 227.85 140.16 226.808 145.822 224.643L144.603 221.269C149.792 219.632 154.829 217.547 159.657 215.038L156.116 213.702Z" fill="white"/>
<path d="M128 79.9788C133.301 79.8345 138.505 81.422 142.82 84.5002C143.493 81.025 144.788 77.6997 146.643 74.6842L141.32 75.2933L138.553 69.3662L133.183 72.1306L128 67L122.818 72.1306L117.448 69.3662L114.681 75.2933L109.358 74.6842C111.214 77.699 112.509 81.0246 113.18 84.5002C117.497 81.4251 122.7 79.8379 128 79.9788Z" fill="white"/>
<path d="M190.494 115.378C193.124 116.868 195.403 118.905 197.177 121.351C198.508 123.416 200.416 125.045 202.664 126.037C203.518 126.323 204.413 126.465 205.314 126.459C207.076 126.453 208.803 125.963 210.305 125.041C211.806 124.12 213.025 122.802 213.826 121.234L215.186 118.189L211.88 118.001C208.323 117.356 205.095 115.512 202.734 112.777C201.864 111.834 200.81 111.079 199.636 110.559C198.462 110.039 197.194 109.765 195.91 109.755C193.904 109.786 191.946 110.379 190.259 111.465L187.211 113.597L190.494 115.378Z" fill="white"/>
<path fill-rule="evenodd" clip-rule="evenodd" d="M217.039 140.14C216.921 140.515 214.06 149.207 205.525 149.207L204.868 148.761C204.08 148.731 203.296 148.637 202.523 148.48C202.875 153.213 204.61 161.974 212.466 165.231L214.811 166.215L213.521 168.558C212.479 170.157 211.049 171.466 209.364 172.363C207.678 173.26 205.793 173.716 203.883 173.688C201.513 173.716 199.172 173.17 197.059 172.095C196.728 174.804 196.123 177.473 195.254 180.06C193.781 184.028 193.781 188.392 195.254 192.36L196.426 194.843L193.753 195.546C192.524 195.838 191.265 195.987 190.001 195.991C189.157 195.994 188.315 195.9 187.492 195.71C185.765 195.31 184.158 194.508 182.802 193.367C181.985 195.995 180.572 198.4 178.675 200.395C175.017 204.175 169.74 206.065 162.846 206.065H158.672L161.017 202.551C162.171 200.161 162.772 197.543 162.776 194.89C162.806 192.493 163.308 190.126 164.253 187.923C165.199 185.72 166.569 183.725 168.287 182.052C167.581 181.725 166.925 181.299 166.34 180.787C165.237 179.854 164.353 178.691 163.749 177.379C163.145 176.068 162.837 174.64 162.846 173.196L163.01 171.111H165.097C167.491 171.234 169.88 170.807 172.083 169.865C174.286 168.923 176.244 167.49 177.807 165.676C178.498 164.878 179.111 164.015 179.636 163.099C177.553 163.728 175.387 164.044 173.211 164.036H171.077C168.531 163.778 166.126 162.748 164.183 161.084L162.002 159.093L164.488 157.5C170.045 153.939 175.767 147.192 171.382 135.338C168.545 127.56 162.002 120.649 151.426 113.948C147.838 111.676 145.845 109.005 145.845 106.452C145.845 102.532 149.195 100.959 151.539 99.8584L151.567 99.8451C152.665 99.4229 153.681 98.8124 154.569 98.0412C156.421 95.8624 154.85 91.8095 153.115 89.4668L150.887 86.5383L154.475 85.8355C155.305 85.7073 156.144 85.6446 156.984 85.6481C159.227 85.632 161.45 86.0676 163.521 86.929C165.592 87.7904 167.468 89.0598 169.037 90.6616C170.327 91.9561 171.322 93.5139 171.954 95.2284C172.585 96.9429 172.838 98.7735 172.695 100.595H173.727H174.243C179.496 100.595 182.098 94.9956 182.098 94.7848L183.576 91.2941L185.921 94.2225C188.127 97.0728 189.136 100.669 188.735 104.249C188.341 106.207 187.529 108.058 186.356 109.675C185.183 111.292 183.675 112.637 181.934 113.62C181.604 113.83 181.29 114.065 180.996 114.323C188.406 116.736 192.557 122.007 196.919 127.56L197.552 128.333C199.615 130.955 202.226 133.095 205.203 134.605C208.18 136.114 211.451 136.956 214.787 137.071H218L217.039 140.14ZM166.34 112.121C178.839 118.892 190.071 130.066 191.994 145.528L192.041 145.575C194.949 160.756 201.421 164.645 201.421 164.645C196.262 162.092 193.026 155.274 192.229 152.932C191.314 166.262 184.866 175.516 177.244 184.441C174.91 187.12 173.097 190.211 171.898 193.555C172.518 190.185 173.951 187.016 176.072 184.324C183.107 175.773 189.931 165.043 190.447 152.768C190.836 145.316 188.991 137.917 185.147 131.519C186.344 134.986 186.518 138.724 185.649 142.288C184.78 145.851 182.905 149.09 180.246 151.62C180.246 151.62 193.261 136.017 175.064 120.039C169.904 115.73 164.404 112.593 160.175 110.181C158.426 109.184 156.895 108.311 155.694 107.529C170.514 112.355 177.76 107.037 177.76 107.037C175.707 108.636 173.332 109.771 170.798 110.366C168.264 110.96 165.631 111 163.081 110.481C164.113 110.973 165.191 111.489 166.34 112.121Z" fill="white"/>
<path d="M94.9594 202.715C93.8224 200.319 93.2222 197.705 93.2006 195.054C93.1679 192.656 92.6622 190.287 91.7126 188.085C90.763 185.882 89.3881 183.887 87.6665 182.216C88.3733 181.891 89.0289 181.464 89.6128 180.951C90.717 180.019 91.6024 178.856 92.2063 177.544C92.8101 176.233 93.1176 174.804 93.1068 173.36L92.9661 171.275H90.8557C88.4664 171.394 86.0816 170.966 83.883 170.024C81.6845 169.082 79.7303 167.651 78.1694 165.84C77.4816 165.039 76.8693 164.176 76.3403 163.263C78.4233 163.894 80.589 164.209 82.7655 164.2C83.4455 164.2 84.149 164.2 84.8994 164.2C87.4529 163.945 89.8669 162.915 91.8171 161.248L93.9979 159.257L91.5122 157.664C85.9312 154.103 80.2329 147.356 84.618 135.502C87.4554 127.794 93.9979 120.836 104.668 114.136C108.255 111.793 110.225 109.193 110.225 106.639C110.225 102.703 106.919 101.134 104.503 100.033C103.405 99.6121 102.388 99.0015 101.502 98.2286C99.6259 96.0499 101.197 91.9033 102.956 89.6542L105.301 86.7258L101.689 86.023C100.859 85.8939 100.02 85.8312 99.1803 85.8356C96.9227 85.7701 94.6754 86.1641 92.575 86.9938C90.4747 87.8234 88.5653 89.0714 86.963 90.6616C85.6498 91.9493 84.6321 93.5064 83.9803 95.2255C83.3284 96.9446 83.058 98.7845 83.1876 100.618H82.1558H81.7806C76.5044 100.618 74.0188 95.0425 73.925 94.8083L72.4476 91.3176L70.1027 94.246C67.9226 97.1085 66.924 100.697 67.3121 104.273C67.7006 106.23 68.5071 108.08 69.6767 109.697C70.8462 111.315 72.3513 112.661 74.0891 113.644C74.4208 113.852 74.7346 114.087 75.0271 114.347C67.617 116.689 63.4664 122.031 59.1047 127.583L58.4716 128.38C56.4059 131.005 53.7909 133.147 50.8097 134.656C47.8284 136.166 44.553 137.006 41.2126 137.118H38L38.9849 140.187C38.9849 140.562 41.9396 149.253 50.4987 149.253H50.9208C51.7086 149.222 52.4927 149.128 53.2658 148.972C52.914 153.658 51.1787 162.466 43.2996 165.723L40.9547 166.707L42.2444 169.05C43.2862 170.649 44.7166 171.958 46.4019 172.855C48.0873 173.752 49.9727 174.208 51.8822 174.18C54.2443 174.204 56.5772 173.657 58.6826 172.587C59.0125 175.297 59.6175 177.965 60.4883 180.552C61.961 184.52 61.961 188.884 60.4883 192.852L59.3158 195.335L61.9891 196.038C63.2184 196.33 64.4774 196.479 65.741 196.483C66.5855 196.487 67.4275 196.393 68.2501 196.202C69.9775 195.804 71.5851 195.001 72.9401 193.859C73.7566 196.488 75.1689 198.893 77.0672 200.887C80.741 204.651 86.0172 206.541 92.8958 206.557H97.0698L94.9594 202.715ZM92.9427 204.027C73.9719 204.027 74.4409 187.768 74.4409 187.768C73.9479 189.259 73.0815 190.599 71.9241 191.661C70.7667 192.723 69.3567 193.472 67.828 193.836C67.1841 193.997 66.5222 194.076 65.8583 194.07C64.791 194.062 63.7285 193.928 62.6925 193.672C64.3964 189.141 64.3964 184.146 62.6925 179.615C61.3618 175.856 60.7185 171.888 60.7931 167.902C59.7248 169.205 58.3624 170.238 56.8175 170.914C55.2726 171.59 53.5893 171.89 51.9057 171.791H51.7884C50.2906 171.813 48.8115 171.457 47.4876 170.757C46.1637 170.057 45.0379 169.034 44.2142 167.785C56.8536 162.537 55.6107 145.599 55.6107 145.599C54.1501 146.49 52.468 146.953 50.7566 146.934H50.4987C43.4638 146.934 41.1188 139.484 41.1188 139.484H41.2595C44.933 139.366 48.5362 138.447 51.8171 136.792C55.098 135.136 57.9773 132.785 60.2538 129.902C65.0844 123.788 69.024 118.4 76.8327 116.291L77.6066 116.151L77.7707 115.377C77.9818 114.183 77.161 113.035 75.4257 111.863C64.6623 104.835 71.9786 95.8391 71.9786 95.8391C71.9786 95.8391 75.0271 103.031 81.9448 103.031H82.2731C83.0596 103.014 83.8437 102.936 84.618 102.797L85.8843 102.539C85.3607 100.743 85.3419 98.8383 85.83 97.0325C86.318 95.2267 87.2941 93.59 88.6514 92.3015C90.003 90.9129 91.6227 89.8128 93.4124 89.0679C95.202 88.3229 97.1244 87.9485 99.0631 87.9675C99.7545 87.9588 100.445 88.0137 101.127 88.1314C98.7817 91.2473 97.0464 96.4013 99.79 99.564C102.135 102.305 107.951 102.422 107.951 106.592C107.951 108.326 106.332 110.341 103.448 112.145C94.7249 117.627 86.0719 124.912 82.4841 134.658C78.0052 146.817 83.0704 154.899 90.2929 159.515C88.7183 160.836 86.7815 161.653 84.7353 161.857C84.0552 161.857 83.4221 161.857 82.789 161.857C79.0085 162.017 75.2891 160.866 72.26 158.601C72.8581 161.809 74.2986 164.8 76.4341 167.269C78.2102 169.321 80.4279 170.946 82.9213 172.021C85.4146 173.096 88.119 173.594 90.8322 173.477C90.8134 174.578 90.5587 175.662 90.0855 176.656C89.6122 177.65 88.9313 178.531 88.0886 179.24C86.2121 180.497 84.0684 181.299 81.8275 181.583C81.8275 181.583 90.0115 183.247 90.9026 195.312C90.8823 198.381 91.6235 201.407 93.0599 204.12L92.9427 204.027Z" fill="white"/>
<path d="M53.336 126.014C52.4819 126.299 51.5866 126.441 50.6862 126.435H50.6627C48.9068 126.428 47.1866 125.939 45.6898 125.022C44.1929 124.105 42.9767 122.795 42.1739 121.234L40.8373 118.189L44.1437 118.025C47.6914 117.373 50.9097 115.529 53.2656 112.801C54.1334 111.853 55.1869 111.093 56.3608 110.569C57.5347 110.045 58.8039 109.768 60.0895 109.755C62.0886 109.788 64.0384 110.381 65.7174 111.465L68.7659 113.597L65.4829 115.354C62.861 116.847 60.5901 118.884 58.8232 121.328C57.4931 123.393 55.585 125.022 53.336 126.014Z" fill="white"/>
<path fill-rule="evenodd" clip-rule="evenodd" d="M103 88.5L98.5 86L91.5 88.5L85.5 94L84.5 102L77 101L72 93L68.5 102L69 106.5L72 111L76 114V115.5L69 118.5L65 122.5L61.5 126L58 130.5L55.5 133L50 136L42 138.5L39 138L42 143.5L46 147.5L50.5 148.5L54.5 147.5L54 153L50.5 161.5L46 166.5L43.5 167.5L45 171.5L50.5 173.5L55.5 172.5L59.5 171.5L60.5 176.5L62.5 184L61.5 194.5L65 195.5L70.5 194.5L73.5 192L76 198L81.5 202.5L90.5 205.5L95 205L93 200.5L92 194.5L91 189.5L89 185.5L86 182L89 179.5L91 176.5L92 172.5H86L80.5 169.5L77 166.5L74.5 161.5L78.5 163H86L90 161.5L92 160L86 155L82 147.5V139.5L86 129.5L92 122.5L103 114L108.5 108.5V104.5L104 101L100 97.5L99.5 93.5L103 88.5ZM70.8998 131.613C67.0408 138.005 65.1944 145.408 65.6002 152.861C66.0926 165.044 72.8931 175.773 79.928 184.324C82.0593 186.998 83.5079 190.15 84.1489 193.508C82.9445 190.167 81.1319 187.077 78.8024 184.395C71.1812 175.492 64.6622 166.238 63.7946 152.885C63.0207 155.227 59.7612 162.068 54.6257 164.598C54.6257 164.598 61.0979 160.709 64.0056 145.529V145.646C65.8581 130.184 77.1609 119.009 89.6596 112.215C90.8086 111.606 91.8873 111.067 92.9191 110.575C90.3721 111.091 87.7434 111.051 85.2136 110.457C82.6837 109.862 80.3126 108.728 78.263 107.131C78.263 107.131 85.509 112.449 100.329 107.623C99.1322 108.402 97.608 109.273 95.8683 110.267C91.6438 112.68 86.1488 115.819 80.9832 120.133C62.7628 136.111 75.8008 151.713 75.8008 151.713C73.1396 149.186 71.2625 145.947 70.3934 142.383C69.5244 138.818 69.7002 135.08 70.8998 131.613Z" fill="white"/>
<path fill-rule="evenodd" clip-rule="evenodd" d="M143.547 91.6456C143.547 87.2647 136.16 83.3289 128.023 83.3289C119.886 83.3289 112.5 87.2647 112.5 91.6456L112.664 92.7232L115.923 111.465L112.664 113.363L104.152 118.189C104.152 118.189 102.252 119.173 101.361 119.758C98.1484 122.101 97.4683 125.24 99.3209 126.599C99.5499 125.056 100.338 123.65 101.535 122.648C102.732 121.647 104.255 121.119 105.816 121.164C107.147 121.202 108.45 121.552 109.619 122.187C110.788 122.822 111.791 123.724 112.547 124.819C113.006 125.385 113.429 125.98 113.813 126.599C114.305 127.396 114.798 128.099 115.29 128.778H93.5757C95.4024 131.925 96.4702 135.455 96.6945 139.086V187.276C96.6945 198.99 105.676 204.495 115.454 204.495C116.035 204.495 116.578 204.493 117.085 204.491C123.133 204.468 124.286 204.463 128.094 208.267C131.901 204.463 133.054 204.468 139.102 204.491C139.61 204.493 140.152 204.495 140.733 204.495C150.441 204.495 159.493 198.943 159.493 187.276V139.133C159.717 135.502 160.785 131.972 162.612 128.825H140.663C141.155 128.145 141.648 127.443 142.14 126.646C142.53 126.03 142.953 125.436 143.406 124.866C144.165 123.769 145.172 122.867 146.346 122.232C147.519 121.597 148.826 121.247 150.16 121.211C151.721 121.165 153.244 121.694 154.441 122.695C155.639 123.697 156.426 125.103 156.655 126.646C158.531 125.311 157.851 121.961 154.615 119.805C153.748 119.196 151.848 118.236 151.848 118.236L143.406 113.269L140.147 111.371L143.406 92.6295L143.547 91.6456ZM115.642 93.8009L127.085 97.6664V115.612L118.667 111.161L115.642 93.8009ZM117.987 131.941C119.521 133.54 121.386 134.787 123.451 135.595C123.012 137.146 123.119 138.8 123.755 140.281C124.517 141.853 125.851 143.077 127.484 143.701C127.637 145.016 128.158 146.261 128.987 147.293C129.817 148.325 130.922 149.102 132.174 149.535C130.767 150.964 129.383 152.299 128.821 152.838L115.712 152.627C115.278 152.42 114.918 152.085 114.68 151.667V151.503L116.814 151.854H116.955C117.157 151.857 117.352 151.787 117.507 151.659C117.662 151.53 117.766 151.35 117.799 151.151C117.833 150.928 117.779 150.7 117.648 150.516C117.516 150.333 117.318 150.207 117.096 150.167L114.469 149.745L117.377 139.672L114.61 133.862L110.178 138.547L109.897 149.019L106.919 148.551C106.808 148.531 106.694 148.533 106.584 148.558C106.473 148.582 106.369 148.629 106.278 148.694C106.186 148.76 106.108 148.843 106.049 148.939C105.99 149.035 105.951 149.142 105.934 149.253C105.9 149.477 105.954 149.704 106.085 149.888C106.217 150.072 106.415 150.197 106.637 150.237L107.88 150.425C107.434 150.683 107.13 150.87 107.106 150.917L106.848 151.104V151.409C106.567 152.715 106.672 154.076 107.151 155.323C107.629 156.571 108.461 157.653 109.545 158.437V158.812C109.477 159.256 109.587 159.708 109.85 160.072C110.113 160.436 110.509 160.682 110.952 160.756H111.233C111.612 160.754 111.979 160.623 112.273 160.385C112.567 160.146 112.771 159.814 112.851 159.444C113.406 159.477 113.962 159.477 114.516 159.444H114.868L132.057 162.56L132.338 162.373C133.698 161.412 138.927 157.687 140.639 156.352C141.135 156.783 141.688 157.146 142.281 157.43C141.887 158.636 141.827 159.926 142.108 161.163C142.389 162.401 142.999 163.539 143.875 164.458H99.8368V139.133C99.7393 136.662 99.2074 134.227 98.2656 131.941H117.987ZM145.587 200.794L146.666 195.124C146.666 194.912 146.715 194.67 146.762 194.437C146.788 194.31 146.813 194.186 146.83 194.07C147.147 194.206 147.477 194.308 147.815 194.375C148.189 194.41 148.566 194.41 148.94 194.375C149.575 194.376 150.202 194.23 150.771 193.95C151.341 193.669 151.838 193.262 152.223 192.758L153.068 191.774L152.364 190.814C152.364 190.814 150.793 188.33 149.621 186.69L148.964 185.706C147.651 183.739 145.986 181.255 142.679 181.255H142.375C141.894 181.278 141.42 181.373 140.968 181.536C139.958 181.05 138.852 180.794 137.732 180.787C136.602 180.811 135.484 181.024 134.425 181.419L133.862 181.583L127.672 180.974C127.418 180.851 127.2 180.666 127.038 180.435L128.375 179.896C128 175.422 123.685 172.681 121.34 171.767C121.234 171.286 120.989 170.846 120.637 170.502L119.3 169.237L118.128 170.643L117.541 171.345L108.865 167.785L114.516 174.813L112.289 178.186C112.174 178.3 112.083 178.435 112.02 178.583C111.958 178.732 111.926 178.892 111.926 179.053C111.926 179.214 111.958 179.374 112.02 179.523C112.083 179.672 112.174 179.807 112.289 179.92L114.634 181.513L116.979 180.623H117.213C117.213 180.974 116.955 182.403 116.838 182.801L112.758 182.099L108.396 184.441C107.418 185.143 106.716 186.163 106.412 187.327C106.108 188.491 106.221 189.724 106.731 190.814L107.223 191.868L107.903 193.367L109.428 192.735C109.146 193.478 109.059 194.282 109.173 195.069C109.288 195.856 109.602 196.6 110.084 197.233L110.999 198.404L112.218 199.95L113.578 198.498C114.466 197.619 115.175 196.577 115.665 195.429L115.947 194.492L115.29 193.765V193.625L116.041 192.407L121.457 193.672L122.677 193.953L123.333 192.875L123.685 192.29C123.685 192.172 123.685 192.149 124.013 192.149H124.6C126.446 192.517 128.322 192.713 130.204 192.735C131.471 192.806 132.741 192.655 133.956 192.29L139 195.5L136.5 201.122L135.175 201.52C133.858 201.498 132.55 201.754 131.338 202.27C130.126 202.787 129.037 203.553 128.141 204.519C125.256 201.661 123.216 201.356 115.501 201.356C106.239 201.356 99.9775 195.944 99.9775 187.3V166.215H156.257V187.3C156.378 190.45 155.37 193.54 153.414 196.013C151.458 198.487 148.683 200.182 145.587 200.794ZM137.38 111.278L128.961 115.705V97.6898L140.381 93.8243L137.38 111.278ZM128 95.7922L115.478 90.7788C116.533 88.2486 121.457 86.0933 128 86.0933C134.542 86.0933 139.467 88.2486 140.522 90.7788L128 95.7922ZM117.87 175.281C117.794 175.275 117.718 175.284 117.645 175.308C117.573 175.332 117.507 175.37 117.45 175.42C117.393 175.471 117.346 175.532 117.314 175.601C117.281 175.67 117.263 175.744 117.26 175.82C117.254 175.896 117.263 175.972 117.287 176.044C117.311 176.116 117.349 176.183 117.399 176.24C117.45 176.297 117.511 176.343 117.58 176.376C117.649 176.408 117.723 176.426 117.799 176.429C117.952 176.429 118.098 176.369 118.206 176.261C118.313 176.153 118.374 176.007 118.374 175.855C118.374 175.703 118.313 175.557 118.206 175.449C118.098 175.342 117.952 175.281 117.799 175.281H117.87ZM123.709 124.655V121.586H132.667V124.655C132.261 124.263 131.772 123.966 131.236 123.788C130.7 123.61 130.131 123.554 129.571 123.624V128.052C129.594 129.144 129.884 130.213 130.415 131.168H125.983C126.519 130.215 126.809 129.144 126.828 128.052V123.624C126.264 123.55 125.69 123.604 125.15 123.783C124.61 123.961 124.117 124.259 123.709 124.655Z" fill="white"/>
<path d="M121.809 103.406C122.497 103.998 123.294 104.452 124.154 104.741L124.717 104.999V102.094L119.511 99.9154C119.637 100.628 119.911 101.307 120.315 101.908C120.719 102.509 121.244 103.019 121.856 103.406" fill="white"/>
<path d="M134.191 103.406C134.803 103.019 135.328 102.509 135.732 101.908C136.136 101.307 136.409 100.628 136.536 99.9154L131.33 102.094V104.976L131.869 104.718C132.73 104.428 133.526 103.975 134.214 103.383" fill="white"/>
<defs>
<linearGradient id="paint0_linear" x1="128" y1="-3.81668e-05" x2="253.856" y2="160.367" gradientUnits="userSpaceOnUse">
<stop stop-color="#F4DD1F"/>
<stop offset="1" stop-color="#EBB700"/>
</linearGradient>
</defs>
</svg>
