<svg width="256" height="256" viewBox="0 0 256 256" fill="none" xmlns="http://www.w3.org/2000/svg">
    <path d="M0 64C0 28.6538 29.715 0 66.3704 0H189.63C226.285 0 256 28.6538 256 64V192C256 227.346 226.285 256 189.63 256H66.3704C29.715 256 0 227.346 0 192V64Z" fill="url(#paint0_linear)"/>
    <g clip-path="url(#clip0)">
        <path fill-rule="evenodd" clip-rule="evenodd" d="M167.293 124.176C172.692 122.638 178.123 121.132 183.554 119.594C188.953 118.056 194.384 116.55 199.815 115.012C203.06 114.083 205.728 118.985 205.728 125.842C205.728 132.09 205.728 138.338 205.728 144.586C205.728 150.833 205.728 157.081 205.728 163.329C205.728 170.218 199.502 173.585 196.256 172.656C190.825 171.118 188.985 171.115 183.554 169.577C178.155 168.039 172.724 166.533 167.293 164.995C164.047 164.066 161.38 159.965 161.38 155.832C161.38 152.083 161.38 148.334 161.38 144.586C161.38 140.837 161.38 137.088 161.38 133.339C161.38 129.238 164.047 125.105 167.293 124.176Z" fill="white"/>
        <path fill-rule="evenodd" clip-rule="evenodd" d="M87.2412 124.174C81.8101 122.636 76.4112 121.13 70.9802 119.592C65.5813 118.086 60.1824 116.549 54.7513 115.011C51.5056 114.113 48.8383 118.984 48.8383 125.872C48.8383 132.12 48.8383 138.368 48.8383 144.616C48.8383 150.864 48.8383 157.112 48.8383 163.36C48.8383 170.249 50.5094 175.092 56.7183 173.633C62.2136 172.343 65.5813 171.146 71.0123 169.608C76.4112 168.07 81.8423 166.564 87.2733 165.026C90.5191 164.097 93.1864 159.996 93.1864 155.862C93.1864 152.114 93.1864 148.365 93.1864 144.616C93.1864 140.867 93.1864 137.119 93.1864 133.37C93.1542 129.237 90.4869 125.103 87.2412 124.174Z" fill="white"/>
        <path fill-rule="evenodd" clip-rule="evenodd" d="M138.724 124.176C141.423 122.638 144.122 121.132 146.854 119.594C149.553 118.056 152.253 116.55 154.984 115.012C156.623 114.083 157.941 118.985 157.941 125.842C157.941 132.09 157.941 138.338 157.941 144.586C157.941 150.833 157.941 157.081 157.941 163.329C157.941 170.218 156.623 175.088 154.984 174.159C152.285 172.621 149.553 171.115 146.854 169.577C144.155 168.039 141.455 166.533 138.724 164.995C137.085 164.066 135.767 159.965 135.767 155.832C135.767 152.083 135.767 148.334 135.767 144.586C135.767 140.837 135.767 137.088 135.767 133.339C135.767 129.238 137.117 125.105 138.724 124.176Z" fill="white"/>
        <path fill-rule="evenodd" clip-rule="evenodd" d="M129.436 124.176C129.854 122.638 130.24 121.132 130.657 119.594C131.075 118.056 131.461 116.55 131.878 115.012C132.136 114.083 132.328 118.985 132.328 125.842C132.328 132.09 132.328 138.338 132.328 144.586C132.328 150.833 132.328 157.081 132.328 163.329C132.328 170.218 132.136 175.088 131.878 174.159C131.461 172.621 131.075 171.115 130.657 169.577C130.24 168.039 129.854 166.533 129.436 164.995C129.179 164.066 128.986 159.965 128.986 155.832C128.986 152.083 128.986 148.334 128.986 144.586C128.986 140.837 128.986 137.088 128.986 133.339C129.018 129.238 129.211 125.105 129.436 124.176Z" fill="white"/>
        <path fill-rule="evenodd" clip-rule="evenodd" d="M115.81 124.176C113.111 122.638 110.379 121.132 107.68 119.594C104.98 118.056 102.281 116.55 99.5493 115.012C97.9104 114.083 96.5928 118.985 96.5928 125.842C96.5928 132.09 96.5928 138.338 96.5928 144.586C96.5928 150.833 96.5928 157.081 96.5928 163.329C96.5928 170.218 97.9104 175.088 99.5493 174.159C102.249 172.621 104.98 171.115 107.68 169.577C110.379 168.039 113.111 166.533 115.81 164.995C117.449 164.066 118.767 159.965 118.767 155.832C118.767 152.083 118.767 148.334 118.767 144.586C118.767 140.837 118.767 137.088 118.767 133.339C118.767 129.238 117.449 125.105 115.81 124.176Z" fill="white"/>
        <path fill-rule="evenodd" clip-rule="evenodd" d="M125.098 124.176C124.68 122.638 124.294 121.132 123.877 119.594C123.459 118.056 123.073 116.55 122.655 115.012C122.398 114.083 122.205 118.985 122.205 125.842C122.205 132.09 122.205 138.338 122.205 144.586C122.205 150.833 122.205 157.081 122.205 163.329C122.205 170.218 122.398 175.088 122.655 174.159C123.073 172.621 123.459 171.115 123.877 169.577C124.294 168.039 124.68 166.533 125.098 164.995C125.355 164.066 125.548 159.965 125.548 155.832C125.548 152.083 125.548 148.334 125.548 144.586C125.548 140.837 125.548 137.088 125.548 133.339C125.548 129.238 125.355 125.105 125.098 124.176Z" fill="white"/>
    </g>
    <path opacity="0.4" fill-rule="evenodd" clip-rule="evenodd" d="M189.438 89.4255L189.423 89.4298C185.58 90.5023 181.742 91.5732 177.917 92.6568C173.818 93.8239 170.449 99.0155 170.449 104.167V113.573C172.645 112.942 174.765 112.316 176.883 111.689L176.936 111.674L176.977 111.662C179.718 110.851 182.457 110.041 185.355 109.222C188.156 108.426 192.948 107.309 197.731 106.195L197.738 106.193C202.452 105.094 207.875 103.997 210.653 103.212C213.998 102.257 217.435 104.395 216.746 114.347V133.618V152.889C216.746 153.9 216.784 154.751 216.784 155.726C219.889 156.176 224.932 156.7 227.532 156.74C232.104 157.025 235 151.789 235 143.137V119.593V92.8002C235 81.9789 231.631 78.0301 227.532 79.1971C224.221 80.1297 217.087 82.0052 212.524 83.2413L212.497 83.2484L212.355 83.287C207.52 84.5968 201.941 85.9139 198.454 86.9017C195.447 87.7485 192.441 88.5875 189.438 89.4255ZM66.5468 89.7781L66.7645 89.8391C70.1114 90.7747 73.4585 91.7103 76.8153 92.6557C80.9146 93.8229 84.2833 99.0146 84.3238 104.206V113.577C81.9799 112.907 79.7216 112.242 77.4633 111.578C74.8048 110.795 72.1462 110.012 69.3478 109.222C66.4931 108.427 61.7504 106.94 57.0528 105.466L57.0315 105.46L56.9957 105.448C52.5575 104.056 45.3033 101.96 42.59 101.194C39.2452 100.271 38.6414 103.799 38.6414 112.361V131.632V150.904C38.6414 152.609 38.6785 154.358 38.6414 155.657C34.2852 156.086 32.4899 156.446 28.5448 156.711C23.1544 156.805 21.0768 151.76 21.0768 143.107V119.564V96.02C20.4249 83.6769 24.0104 78.6616 28.5448 79.1278C32.8113 79.9611 39.8348 81.9956 43.8868 83.2276C48.2913 84.5668 52.727 85.9153 56.2784 86.9006C59.7079 87.8665 63.1274 88.8224 66.5468 89.7781ZM148.967 88.6549L151.047 87.4932L152.104 86.9017C154.476 85.5573 156.131 84.9505 158.517 83.618L158.522 83.615C159.563 83.0338 160.607 82.451 161.654 81.8645C163.724 80.6975 165.388 86.8551 165.388 95.4676V99.7984L138.101 113.584V104.167C138.101 99.0155 139.806 93.8239 141.835 92.6568C144.208 91.3124 146.581 89.9874 148.967 88.6549ZM130.877 93.028L130.873 93.0442C130.62 93.9946 130.368 94.9451 130.106 95.9056C129.822 97.0726 129.578 102.264 129.538 107.416V113.275L131.266 107.653C131.336 107.391 131.405 107.129 131.474 106.867C131.681 106.085 131.888 105.302 132.104 104.512C132.148 104.352 132.19 104.36 132.23 104.517L133.759 99.547V97.9982C133.759 89.3857 133.515 83.2281 133.19 84.3952C132.927 85.3611 132.673 86.317 132.419 87.2727L132.217 88.0345L132.099 88.4761C131.951 89.0321 131.801 89.5895 131.648 90.1505C131.384 91.1162 131.131 92.0721 130.877 93.028ZM107.764 89.7796L107.762 89.7788L107.734 89.7636C106.029 88.8127 104.324 87.862 102.629 86.9017C100.256 85.5571 98.6011 84.9502 96.2146 83.6177L96.1455 83.5792C95.1259 83.0098 94.1038 82.4389 93.0782 81.8645C91.0082 80.6975 89.3442 86.8551 89.3442 95.4676V99.9654L116.631 113.751V104.167C116.631 99.0155 114.967 93.8239 112.897 92.6568C111.211 91.7014 109.515 90.7559 107.819 89.8105L107.767 89.7815L107.764 89.7796ZM123.86 93.0442C124.112 93.9946 124.364 94.9451 124.627 95.9056C124.951 97.0726 125.195 102.264 125.195 107.416V112.517L122.934 105.759L122.798 105.248C122.732 105.003 122.666 104.758 122.599 104.512C122.563 104.382 122.528 104.363 122.495 104.445L120.974 99.8959V97.9982C120.974 89.3857 121.217 83.2281 121.542 84.3952C121.804 85.3557 122.057 86.3062 122.309 87.2565L122.313 87.2727L122.531 88.0949C122.713 88.7775 122.896 89.4615 123.084 90.1505C123.347 91.1108 123.599 92.0613 123.851 93.0117L123.854 93.0241L123.855 93.028L123.86 93.0442Z" fill="white"/>
    <defs>
        <linearGradient id="paint0_linear" x1="357" y1="78" x2="216.421" y2="362.819" gradientUnits="userSpaceOnUse">
            <stop stop-color="#5BE492"/>
            <stop offset="1" stop-color="#005949"/>
        </linearGradient>
        <clipPath id="clip0">
            <rect width="156.857" height="59.3713" fill="white" transform="translate(48.8383 114.916)"/>
        </clipPath>
    </defs>
</svg>
