<svg width="256" height="256" viewBox="0 0 256 256" fill="none" xmlns="http://www.w3.org/2000/svg">
    <path d="M0 64C0 28.6538 29.715 0 66.3704 0H189.63C226.285 0 256 28.6538 256 64V192C256 227.346 226.285 256 189.63 256H66.3704C29.715 256 0 227.346 0 192V64Z" fill="url(#paint0_linear)"/>
    <g clip-path="url(#clip0)">
        <path d="M132.817 90.4331C104.359 90.4331 81.7212 113.259 81.7212 141.228C81.7212 169.52 104.682 192.024 132.817 192.024C160.952 192.024 183.913 169.198 183.913 141.228C183.913 113.259 160.952 90.4331 132.817 90.4331ZM132.817 160.196C122.469 160.196 113.737 151.516 113.737 141.228C113.737 130.941 122.469 122.261 132.817 122.261C143.166 122.261 151.897 130.941 151.897 141.228C151.574 151.516 143.166 160.196 132.817 160.196Z" fill="white"/>
        <path d="M81.3942 105.222V179.164H63.2843L40 105.222H81.3942Z" fill="white"/>
    </g>
    <path opacity="0.32" fill-rule="evenodd" clip-rule="evenodd" d="M170.917 187.922C197.707 178.892 216.999 153.562 216.999 123.727C216.999 86.3225 186.676 56 149.272 56C119.436 56 94.1071 75.2916 85.0771 102.081C96.257 86.9656 114.212 77.1647 134.456 77.1647C168.354 77.1647 195.834 104.645 195.834 138.543C195.834 158.787 186.033 176.742 170.917 187.922Z" fill="white"/>
    <defs>
        <linearGradient id="paint0_linear" x1="128" y1="0" x2="128" y2="256" gradientUnits="userSpaceOnUse">
            <stop stop-color="#0160D1"/>
            <stop offset="1" stop-color="#00479C"/>
        </linearGradient>
        <clipPath id="clip0">
            <rect width="143.92" height="101.591" fill="white" transform="translate(40 90.4331)"/>
        </clipPath>
    </defs>
</svg>
