<svg width="256" height="257" viewBox="0 0 256 257" fill="none" xmlns="http://www.w3.org/2000/svg"><path d="M0 65C0 29.65 29.72 1 66.37 1H189.63C226.29 1 256 29.65 256 65V193C256 228.35 226.29 257 189.63 257H66.37C29.72 257 0 228.35 0 193V65Z" fill="url(#paint0_linear)"/><circle cx="115" cy="142" r="60" stroke="white" stroke-width="6"/><path fill-rule="evenodd" clip-rule="evenodd" d="M168.2 141.65C168.2 145.06 167.93 148.09 167.4 150.8 164.89 140.02 156.65 131.45 146.07 128.45 138.19 117.29 125.2 110 110.5 110 86.48 110 67 129.48 67 153.5 67 156.15 67.24 158.75 67.69 161.27 63.52 156.73 61.1 150.42 61.1 141.65 61.1 112.08 85.07 88.1 114.65 88.1 144.22 88.1 168.2 112.08 168.2 141.65ZM141.51 127.45C140.51 127.35 139.48 127.3 138.45 127.3 121.63 127.3 108 140.93 108 157.75 108 173.13 119.4 185.85 134.22 187.91 127.62 192.4 119.62 195.02 111 195.02 88.36 195.02 70 176.89 70 154.51 70 132.14 88.36 114 111 114 123.12 114 134.01 119.19 141.51 127.45Z" fill="white"/><circle cx="138.1" cy="157.4" r="26.6" fill="white"/><path opacity="0.32" d="M82.52 73.54C120 54.92 165.49 70.24 184.13 107.75 195.82 131.29 194.16 157.98 182.04 179.19 180.15 182.5 180.84 186.78 183.92 189.03L196.65 198.31C199.81 200.61 204.26 199.9 206.29 196.56 224.54 166.63 227.48 128.26 210.72 94.53 184.78 42.32 121.46 21.01 69.3 46.93 58.03 52.53 48.2 59.88 39.98 68.48 36.82 71.79 37.62 77.06 41.41 79.6L53.48 87.71C56.73 89.89 61.08 89.28 63.91 86.58 69.29 81.45 75.52 77.03 82.52 73.54Z" fill="white"/><defs><linearGradient id="paint0_linear" x1="251" y1="23" x2="204.6" y2="292.26" gradientUnits="userSpaceOnUse"><stop stop-color="#FFC90A"/><stop offset="1" stop-color="#FFAB07"/></linearGradient></defs></svg>