<svg width="256" height="256" viewBox="0 0 256 256" fill="none" xmlns="http://www.w3.org/2000/svg">
    <path d="M0 64C0 28.6538 29.715 0 66.3704 0H189.63C226.285 0 256 28.6538 256 64V192C256 227.346 226.285 256 189.63 256H66.3704C29.715 256 0 227.346 0 192V64Z" fill="url(#paint0_linear)"/>
    <path d="M199.117 151.478C199.117 126.449 189.46 107.769 159.982 99.6376L150.573 98.5195L146.318 93.6194C137.083 82.985 123.426 75.2421 108.142 75.2421C93.689 75.2421 80.7055 82.2734 71.5487 91.8815C70.2106 77.4283 81.7548 48.0871 120.34 47.7972C139.116 49.5911 151.413 58.3035 163.997 70.8721C190.534 77.699 213.348 91.7766 223.004 118.442C237.235 171.57 197.084 189.103 179.804 192.684C191.695 182.562 199.117 167.755 199.117 151.478Z" fill="white" fill-opacity="0.41"/>
    <path fill-rule="evenodd" clip-rule="evenodd" d="M124.377 110.895C118.834 104.768 110.19 102.159 100.942 104.618C92.8695 106.765 86.8649 112.698 84.3299 119.95C89.0909 121.29 93.4877 123.503 97.3269 126.403C100.911 129.11 101.621 134.209 98.9141 137.793C96.2071 141.376 91.1076 142.087 87.524 139.38C83.6734 136.471 78.8683 134.741 73.625 134.741C60.9023 134.741 50.7109 144.946 50.7109 157.383C50.7109 169.821 60.9023 180.025 73.625 180.025H141.982C157.838 180.025 170.655 167.277 170.655 151.775C170.655 136.231 157.941 123.524 142.127 123.524C140.703 123.524 139.306 123.627 137.941 123.825C137.849 123.841 137.757 123.855 137.665 123.867C134.128 124.416 130.816 125.607 127.845 127.312C123.951 129.548 118.981 128.203 116.745 124.308C114.509 120.414 115.853 115.444 119.748 113.208C121.239 112.352 122.785 111.579 124.377 110.895ZM141.636 107.263C132.943 91.4825 114.89 84.0799 96.7621 88.9005C81.7404 92.8951 70.9466 104.792 67.7318 118.915C48.9382 121.735 34.4473 137.83 34.4473 157.383C34.4473 178.938 52.0554 196.289 73.625 196.289H141.982C166.62 196.289 186.919 176.459 186.919 151.775C186.919 127.132 166.807 107.261 142.127 107.261C141.963 107.261 141.799 107.262 141.636 107.263Z" fill="white"/>
    <defs>
        <linearGradient id="paint0_linear" x1="357" y1="78" x2="216.421" y2="362.819" gradientUnits="userSpaceOnUse">
            <stop stop-color="#53C1FF"/>
            <stop offset="1" stop-color="#408FFF"/>
        </linearGradient>
    </defs>
</svg>
