<svg width="256" height="256" viewBox="0 0 256 256" fill="none" xmlns="http://www.w3.org/2000/svg">
    <path d="M0 64C0 28.6538 29.715 0 66.3704 0H189.63C226.285 0 256 28.6538 256 64V192C256 227.346 226.285 256 189.63 256H66.3704C29.715 256 0 227.346 0 192V64Z" fill="url(#paint0_linear)"/>
    <path fill-rule="evenodd" clip-rule="evenodd" d="M117.466 89H97.0087V129H106.627V114.751H115.425L121.92 129H132.397L124.654 113.001C126.538 112.055 128.012 110.731 129.043 109.021C130.223 107.064 130.783 104.665 130.783 101.876C130.783 97.9265 129.697 94.7387 127.407 92.4449C125.101 90.0972 121.73 89 117.466 89ZM119.97 105.088C119.296 105.787 118.278 106.199 116.768 106.199H106.627V97.6642H116.768C118.289 97.6642 119.311 98.0635 119.983 98.7324C120.66 99.406 121.058 100.409 121.058 101.876C121.058 103.341 120.661 104.372 119.97 105.088Z" fill="white"/>
    <path fill-rule="evenodd" clip-rule="evenodd" d="M96 88H117.466C121.894 88 125.568 89.1407 128.127 91.7444C130.652 94.2759 131.792 97.7457 131.792 101.876C131.792 104.795 131.206 107.383 129.909 109.534C128.939 111.144 127.613 112.437 125.975 113.418L134 130H121.269L114.774 115.751H107.636V130H96V88ZM106.627 114.751H115.425L121.92 129H132.397L124.654 113.001C126.538 112.055 128.012 110.731 129.043 109.021C130.223 107.064 130.783 104.665 130.783 101.876C130.783 97.9265 129.697 94.7387 127.407 92.4449C125.101 90.0972 121.73 89 117.466 89H97.0087V129H106.627V114.751ZM116.768 105.199C118.088 105.199 118.809 104.844 119.241 104.397C119.707 103.913 120.049 103.156 120.049 101.876C120.049 100.592 119.706 99.8735 119.269 99.4381C118.841 99.0125 118.11 98.6642 116.768 98.6642H107.636V105.199H116.768ZM116.768 106.199C118.278 106.199 119.296 105.787 119.97 105.088C120.661 104.372 121.058 103.341 121.058 101.876C121.058 100.409 120.66 99.406 119.983 98.7324C119.311 98.0635 118.289 97.6642 116.768 97.6642H106.627V106.199H116.768Z" fill="white"/>
    <path opacity="0.32" d="M164.267 54.9299H75C75 41.0929 86.3002 29.9032 100.175 30.0006L176.968 30.5399C199.676 30.6994 218 49.1018 218 71.7473V153.953C218 163.179 213.778 171.44 207.138 176.895C202.165 180.98 195.837 183.491 188.91 183.653L175.201 183.975V161.379C175.201 157.774 178.131 154.852 181.746 154.852C185.362 154.852 188.292 151.929 188.292 148.324V78.8882C188.292 65.6564 177.536 54.9299 164.267 54.9299Z" fill="white"/>
    <path fill-rule="evenodd" clip-rule="evenodd" d="M155.815 79.5261H68.1852C63.9305 79.5261 60.4815 82.9866 60.4815 87.2554V132.665C60.4815 136.933 63.9305 140.394 68.1852 140.394H155.815C160.069 140.394 163.519 136.933 163.519 132.665V87.2554C163.519 82.9866 160.069 79.5261 155.815 79.5261ZM68.1852 66C56.4849 66 47 75.5163 47 87.2554V132.665C47 144.404 56.4849 153.92 68.1852 153.92H155.815C167.515 153.92 177 144.404 177 132.665V87.2554C177 75.5164 167.515 66 155.815 66H68.1852Z" fill="white"/>
    <path fill-rule="evenodd" clip-rule="evenodd" d="M64.3333 147.157C64.3333 143.688 67.1357 140.877 70.5926 140.877H154.37C157.827 140.877 160.63 143.688 160.63 147.157V216.72C160.63 219.26 159.105 221.55 156.766 222.522C154.427 223.494 151.735 222.957 149.944 221.16L140.407 211.592L130.87 221.16C128.426 223.613 124.463 223.613 122.018 221.16L112.481 211.592L102.944 221.16C100.5 223.613 96.5369 223.613 94.0926 221.16L84.5556 211.592L75.0186 221.16C73.2284 222.957 70.5362 223.494 68.1973 222.522C65.8584 221.55 64.3333 219.26 64.3333 216.72V147.157ZM76.8519 153.437V201.559L80.1296 198.27C82.574 195.818 86.5371 195.818 88.9815 198.27L98.5185 207.839L108.056 198.27C110.5 195.818 114.463 195.818 116.907 198.27L126.444 207.839L135.981 198.27C138.426 195.818 142.389 195.818 144.833 198.27L148.111 201.559V153.437H76.8519Z" fill="white"/>
    <path fill-rule="evenodd" clip-rule="evenodd" d="M91.6445 167.774C91.6445 165.388 93.5789 163.454 95.965 163.454H127.648C130.034 163.454 131.969 165.388 131.969 167.774C131.969 170.16 130.034 172.095 127.648 172.095H95.965C93.5789 172.095 91.6445 170.16 91.6445 167.774Z" fill="white"/>
    <path fill-rule="evenodd" clip-rule="evenodd" d="M91.6445 181.696C91.6445 179.31 93.5789 177.375 95.965 177.375H116.127C118.513 177.375 120.448 179.31 120.448 181.696C120.448 184.082 118.513 186.016 116.127 186.016H95.965C93.5789 186.016 91.6445 184.082 91.6445 181.696Z" fill="white"/>
    <defs>
        <linearGradient id="paint0_linear" x1="357" y1="78" x2="216.421" y2="362.819" gradientUnits="userSpaceOnUse">
            <stop stop-color="#277EFF"/>
            <stop offset="1" stop-color="#1A48EB"/>
        </linearGradient>
    </defs>
</svg>
