<svg width="256" height="256" viewBox="0 0 256 256" fill="none" xmlns="http://www.w3.org/2000/svg">
    <path d="M0 64C0 28.6538 29.715 0 66.3704 0H189.63C226.285 0 256 28.6538 256 64V192C256 227.346 226.285 256 189.63 256H66.3704C29.715 256 0 227.346 0 192V64Z" fill="url(#paint0_linear)" />
    <path opacity="0.27" d="M175.48 80.7469L61.5 80.7469C61.5 69.147 77.3681 53.9183 89 54L186.127 55.4525C205.164 55.5862 222.465 75.8611 222.465 94.8453V112.017C222.465 113.655 222.797 115.276 223.483 116.763C224.872 119.772 227.454 125.098 229.794 128.442C230.481 129.423 230.667 130.702 230.154 131.784L223.622 145.56C222.86 147.166 222.465 148.923 222.465 150.701V164.828C222.465 175.42 215.79 184.862 205.805 188.396L195.621 192V148.381C195.621 146.368 196.127 144.387 197.094 142.621L203.16 131.535C203.679 130.587 203.647 129.432 203.077 128.513L197.425 119.407C196.246 117.507 195.621 115.315 195.621 113.079V100.832C195.621 89.7392 186.603 80.7469 175.48 80.7469Z" fill="white" />
    <path fill-rule="evenodd" clip-rule="evenodd" d="M67.2688 96C63.9551 96 61.2688 98.6863 61.2688 102V161C61.2688 164.314 63.9551 167 67.2688 167H155.28C158.593 167 161.28 164.314 161.28 161V144.86H120.817C113.649 144.86 107.839 139.05 107.839 131.882C107.839 124.714 113.649 118.903 120.817 118.903H161.28V102C161.28 98.6863 158.593 96 155.28 96H67.2688Z" fill="white" />
    <circle cx="121.199" cy="131.5" r="4.96237" fill="white" />
    <path d="M188 130.737L169.677 151.563V109.91L188 130.737Z" fill="white" />
    <path d="M33.7849 130.737L52.1075 109.91V151.563L33.7849 130.737Z" fill="white" />
    <defs>
        <linearGradient id="paint0_linear" x1="251" y1="22" x2="204.597" y2="291.259" gradientUnits="userSpaceOnUse">
            <stop stop-color="#C6004F" />
            <stop offset="1" stop-color="#B10047" />
        </linearGradient>
    </defs>
</svg>
