<svg width="256" height="256" viewBox="0 0 256 256" fill="none" xmlns="http://www.w3.org/2000/svg">
<path d="M0 64C0 28.6538 29.715 0 66.3704 0H189.63C226.285 0 256 28.6538 256 64V192C256 227.346 226.285 256 189.63 256H66.3704C29.715 256 0 227.346 0 192V64Z" fill="url(#paint0_linear)"/>
<path opacity="0.32" d="M180.966 84.0359C177.502 74.8287 173.408 64.612 169.526 56.5644C162.5 42 143.5 35 128.983 35C114.467 35 96.6195 41.5 87.3762 56.4206C83.1413 63.2567 78.0899 74.6664 73.8592 85.024C67.9768 99.4252 69.9486 115.714 78.3879 128.782L79.1743 130L101.143 79.2828C105.738 68.6753 116.194 61.8098 127.754 61.8098H128.239C139.559 61.8098 149.765 68.6259 154.102 79.0822L174.738 128.834C184.019 115.768 186.609 99.0364 180.966 84.0359Z" fill="white"/>
<path fill-rule="evenodd" clip-rule="evenodd" d="M81 212V193.567H175V212H81ZM114.572 134.309H140.696L128.244 97.3282H127.755L114.572 134.309ZM145.086 90.5017L172.803 168.524H152.293L146.067 149.977H108.956L102.241 168.524H82.9537L112.039 90.5017C114.86 82.9348 118.147 77 128.732 77C139.317 77 142.406 82.9588 145.086 90.5017Z" fill="white"/>
<defs>
<linearGradient id="paint0_linear" x1="128" y1="-3.81668e-05" x2="253.856" y2="160.367" gradientUnits="userSpaceOnUse">
<stop stop-color="#EF3124"/>
<stop offset="1" stop-color="#BF1D12"/>
</linearGradient>
</defs>
</svg>
