<svg width="256" height="256" viewBox="0 0 256 256" fill="none" xmlns="http://www.w3.org/2000/svg">
    <path d="M0 64C0 28.6538 29.715 0 66.3704 0H189.63C226.285 0 256 28.6538 256 64V192C256 227.346 226.285 256 189.63 256H66.3704C29.715 256 0 227.346 0 192V64Z" fill="url(#paint0_linear)"/>
    <circle cx="188" cy="129" r="25" fill="white" fill-opacity="0.7"/>
    <path d="M91.5498 191L58.9135 158.617C41.6955 141.532 41.6955 113.833 58.9135 96.7483L108.26 47.7844C113.719 42.3684 122.524 42.3683 127.982 47.7844L156.984 76.562C162.503 82.038 162.503 90.9619 156.984 96.4379L94.9416 158C85.903 166.968 84.7724 180.812 91.5498 191Z" fill="url(#paint1_linear)" fill-opacity="0.6"/>
    <path d="M91.1734 65L58.8068 97.3832C41.7311 114.468 41.7311 142.167 58.8068 159.252L107.623 208.093C113.091 213.564 121.959 213.564 127.427 208.093L156.108 179.397C161.572 173.93 161.572 165.07 156.108 159.603L94.5371 98.0005C85.5732 89.032 84.452 75.1881 91.1734 65Z" fill="white"/>
    <defs>
        <linearGradient id="paint0_linear" x1="384" y1="-37.5" x2="281.942" y2="333.549" gradientUnits="userSpaceOnUse">
            <stop stop-color="#1FFFE4"/>
            <stop offset="1" stop-color="#0794EF"/>
        </linearGradient>
        <linearGradient id="paint1_linear" x1="106.5" y1="191" x2="106.5" y2="38" gradientUnits="userSpaceOnUse">
            <stop stop-color="white" stop-opacity="0.63"/>
            <stop offset="1" stop-color="white"/>
        </linearGradient>
    </defs>
</svg>
