<svg width="256" height="256" viewBox="0 0 256 256" fill="none" xmlns="http://www.w3.org/2000/svg">
<path d="M0 64C0 28.6538 29.715 0 66.3704 0H189.63C226.285 0 256 28.6538 256 64V192C256 227.346 226.285 256 189.63 256H66.3704C29.715 256 0 227.346 0 192V64Z" fill="url(#paint0_linear)"/>
<path d="M110.652 62.6924C100.975 65.5185 96.112 78.4356 102.646 86.4994C109.13 96.3864 126.287 93.7834 129.363 82.2642C133.686 71.3102 121.754 58.9167 110.652 62.6924Z" fill="white" fill-opacity="0.7"/>
<path d="M100.324 133.3C102.407 141.245 111.323 146.219 118.836 143.54C126.391 141.385 131.255 132.133 128.565 124.391C126.308 116.631 117.681 111.806 110.209 114.335C102.807 116.587 97.7872 125.539 100.324 133.3Z" fill="white"/>
<path d="M140.165 117.478C148.273 117.727 155.712 110.595 155.108 102.762C155.337 94.1837 145.939 87.0602 137.27 89.1551C130.099 90.6214 124.411 97.6949 125.66 104.788C126.243 111.742 132.913 117.478 140.165 117.478Z" fill="white"/>
<path d="M162.229 114.243C155.688 116.025 150.749 122.851 151.369 129.903C151.566 137.76 158.502 144.458 166.069 144.265C174.427 144.522 181.87 136.343 180.884 127.703C180.448 118.471 170.763 111.56 162.229 114.243Z" fill="white"/>
<path d="M101.986 109.542C107.499 99.3491 96.8353 86.0061 85.6671 89.2944C76.2891 91.2392 71.6995 103.337 77.0735 111.117C82.5563 120.328 97.6871 119.325 101.986 109.542Z" fill="white"/>
<path d="M77.5643 127.674C77.2097 118.552 67.4651 111.597 59.0676 114.216C52.0292 115.9 47.038 123.584 48.1569 130.967C48.9557 139.188 57.1868 145.455 65.024 144.081C72.5507 143.137 78.4671 135.486 77.5643 127.674Z" fill="white"/>
<path d="M136.772 141.073C129.732 143.039 124.81 151.041 126.948 158.14C128.341 164.678 134.846 169.582 141.562 169.111C149.723 168.99 156.318 160.738 154.965 152.806C154.03 144.472 144.862 138.426 136.772 141.073Z" fill="white"/>
<path d="M109.357 166.345C97.7467 170.119 96.1165 187.754 106.882 193.572C117.54 200.99 133.386 189.616 129.735 177.152C127.953 168.333 117.637 162.945 109.357 166.345Z" fill="white"/>
<path d="M103.145 151.932C101.583 143.877 92.5335 138.401 84.6531 141.171C78.5175 143.046 74.2537 149.505 74.8394 155.853C75.1725 163.165 81.9625 169.553 89.3899 169.122C97.9758 169.173 105.151 160.267 103.145 151.932Z" fill="white"/>
<path opacity="0.7" d="M98.5 53L95.5 54.5C101.886 41.0766 110.793 26.9777 125.558 25.2569C127.02 25.0865 128.497 25 129.982 25C136.972 25 143.676 27.7768 148.619 32.7196L220.45 104.551C221.423 105.524 222.325 106.542 223.157 107.599C228.187 113.659 230.788 121.057 230.96 128.5C230.788 135.943 228.187 143.341 223.157 149.401C222.325 150.458 221.423 151.476 220.45 152.449L148.619 224.28C143.676 229.223 136.972 232 129.982 232C128.497 232 127.02 231.914 125.558 231.743C110.793 230.022 101.886 215.923 95.5 202.5L98.5 204C114 210.5 128.43 207.196 140.602 195.024L152.703 182.923L141.533 193.96L193.636 141.856C193.895 141.597 194.146 141.333 194.387 141.063C197.314 137.404 198.772 132.951 198.752 128.5C198.772 124.049 197.314 119.596 194.387 115.937C194.146 115.667 193.895 115.403 193.636 115.144L141.533 63.0404L152.703 74.0771L140.602 61.9764C128.43 49.8043 114 46.5 98.5 53Z" fill="white" fill-opacity="0.6"/>
<defs>
<linearGradient id="paint0_linear" x1="251" y1="22" x2="204.597" y2="291.259" gradientUnits="userSpaceOnUse">
<stop stop-color="#DD214B"/>
<stop offset="1" stop-color="#991633"/>
</linearGradient>
</defs>
</svg>
