<svg width="256" height="256" viewBox="0 0 256 256" fill="none" xmlns="http://www.w3.org/2000/svg">
    <path d="M0 64C0 28.6538 29.715 0 66.3704 0H189.63C226.285 0 256 28.6538 256 64V192C256 227.346 226.285 256 189.63 256H66.3704C29.715 256 0 227.346 0 192V64Z" fill="url(#paint0_linear)"/>
    <path d="M66.7755 216C71.9366 173.205 83.7404 142.059 88.9971 131.836C72.9402 111.294 64.625 92.3694 62.4745 85.4746C107.204 100.881 198.671 100.928 238.814 99.0264C147.06 114.433 85.8908 183.428 66.7755 216Z" fill="white" fill-opacity="0.57"/>
    <path d="M45.4874 194.525C50.6485 151.73 62.4522 120.585 67.7089 110.361C51.652 89.8198 43.3369 70.8948 41.1864 64C85.9163 79.4063 177.383 79.4538 217.525 77.5518C125.772 92.9581 64.6027 161.953 45.4874 194.525Z" fill="white"/>
    <defs>
        <linearGradient id="paint0_linear" x1="357" y1="78" x2="216.421" y2="362.819" gradientUnits="userSpaceOnUse">
            <stop stop-color="#C3EC4F"/>
            <stop offset="1" stop-color="#70C818"/>
        </linearGradient>
    </defs>
</svg>
