<svg width="256" height="256" viewBox="0 0 256 256" fill="none" xmlns="http://www.w3.org/2000/svg">
    <path d="M0 64C0 28.6538 29.715 0 66.3704 0H189.63C226.285 0 256 28.6538 256 64V192C256 227.346 226.285 256 189.63 256H66.3704C29.715 256 0 227.346 0 192V64Z" fill="url(#paint0_linear)"/>
    <path fill-rule="evenodd" clip-rule="evenodd" d="M63.0576 79.3512C64.3566 79.0669 65.706 78.9171 67.0903 78.9171H161.178C167.431 78.9171 173.274 82.0299 176.762 87.2196L203.799 127.446C206.884 132.035 207.725 137.63 206.359 142.759L222.424 124.619C227.004 118.453 227.202 110.069 222.917 103.694L195.432 58.6831C192.064 53.6724 185.393 51.6966 179.356 51.6966L81.187 52.7263C71.1744 52.7263 63.0576 64.9618 63.0576 74.9743V79.3512Z" fill="white" fill-opacity="0.62"/>
    <path d="M68.5327 115.139C68.6092 114.2 68.5948 113.28 68.5802 112.352C68.5743 111.98 68.5685 111.605 68.5685 111.228C68.5685 110.822 68.5568 110.414 68.5451 110.004C68.5159 108.98 68.4866 107.953 68.64 106.963C68.7473 106.394 69.57 105.47 70.0707 105.47C72.7176 105.434 75.4002 105.434 78.0113 105.789C81.4809 106.252 82.5182 107.851 82.4466 111.762C82.3751 114.499 80.372 116.774 77.5463 117.058C75.8804 117.245 74.1942 117.312 72.5031 117.379L72.4993 117.379C71.9406 117.401 71.3812 117.423 70.8219 117.449C69.2481 117.52 68.3896 116.881 68.5327 115.139Z" fill="white"/>
    <path d="M110.274 126.088C112.196 126.088 112.167 127.51 112.138 128.855C112.134 129.086 112.129 129.317 112.134 129.536C112.134 132.628 110.56 134.157 106.912 134.477C105.839 134.548 104.659 134.406 103.621 134.086C102.083 133.588 101.046 132.628 101.082 130.744C101.117 128.86 101.618 127.403 103.55 127.012C105.767 126.55 108.021 126.088 110.274 126.088Z" fill="white"/>
    <path d="M148.929 159.601C145.67 159.601 142.992 162.189 142.688 165.499C142.656 165.846 142.943 166.129 143.294 166.129H154.564C154.914 166.129 155.202 165.846 155.17 165.499C154.865 162.189 152.187 159.601 148.929 159.601Z" fill="white"/>
    <path fill-rule="evenodd" clip-rule="evenodd" d="M42 181.892V104.82C42 94.819 50.1399 86.7117 60.1811 86.7117H155.532C161.587 86.7117 167.244 89.7136 170.622 94.7186L198.185 135.564C202.482 141.931 202.284 150.305 197.69 156.464L170.67 192.69C167.24 197.289 161.828 200 156.076 200H60.1811C50.1399 200 42 191.893 42 181.892ZM68.4734 131.289C68.4703 132.507 68.3325 134.16 68.1669 135.682C68.1584 135.989 68.1486 136.295 68.1379 136.601C68.1092 137.419 68.073 138.238 68.0316 139.063C68.0316 139.24 67.4593 139.525 67.1731 139.525C66.8811 139.53 66.5883 139.535 66.2951 139.541C64.5052 139.576 62.696 139.611 60.9136 139.489C60.4129 139.454 59.5902 138.672 59.5902 138.209C59.5369 135.563 59.5432 132.936 59.5498 130.124C59.5518 129.304 59.5537 128.469 59.5543 127.613V121.007V121.007L59.5548 100.813C59.5548 98.9286 60.2344 98.2532 62.0944 98.2532C63.8371 98.2532 65.5797 98.2301 67.3214 98.2071C71.2993 98.1544 75.2722 98.1018 79.2275 98.3243C84.8073 98.6442 89.4572 100.386 91.1741 106.998C93.1414 114.605 89.7792 122.426 80.6582 123.884C78.0947 124.308 75.4531 124.422 72.8444 124.535L72.8434 124.535L72.8423 124.535C72.3942 124.554 71.9471 124.574 71.5015 124.594C69.2481 124.701 68.5327 125.341 68.5327 127.545C68.5327 128.568 68.5327 129.619 68.5089 130.649C68.5055 130.8 68.5015 130.95 68.4969 131.1C68.515 131.154 68.5056 131.208 68.4734 131.289ZM99.2575 139.88C103.943 140.805 108.271 140.058 112.349 137.179C112.706 139.418 112.849 139.525 114.817 139.525H118.751C120.969 139.525 121.112 139.383 121.112 137.214V118.765C121.112 114.072 118.823 110.908 114.316 109.664C109.916 108.491 105.445 108.562 101.01 109.522C97.5048 110.269 94.7864 112.082 93.7134 115.672C93.5345 116.347 93.8564 117.84 93.9995 117.84C96.2529 117.983 98.5421 117.947 100.796 117.876C100.993 117.876 101.168 117.566 101.321 117.296C101.362 117.223 101.402 117.154 101.439 117.094C103.049 114.143 107.162 113.006 110.095 114.677C111.49 115.494 112.492 117.449 112.098 118.871C111.607 120.581 110.254 120.613 108.783 120.647L108.7 120.649C106.518 120.684 104.337 120.755 102.155 121.004C96.9683 121.608 92.7476 124.168 92.068 129.998C91.4957 135.01 94.2499 138.92 99.2575 139.88ZM132.526 142.105C133.509 140.203 133.191 138.322 132.415 136.254C129.834 129.574 127.404 122.818 124.978 116.072C124.512 114.777 124.047 113.482 123.58 112.188C122.829 110.126 123.222 109.629 125.368 109.593H128.588C131.485 109.593 131.664 109.735 132.594 112.473L132.595 112.476L132.596 112.48C134.277 117.348 135.957 122.215 137.78 127.438C139.209 123.463 140.531 119.806 141.852 116.149L141.858 116.134C142.08 115.514 142.312 114.899 142.545 114.283C142.913 113.311 143.282 112.336 143.61 111.335C144.04 110.126 144.719 109.486 146.078 109.558C147.76 109.664 149.405 109.629 151.086 109.558C152.409 109.522 152.91 110.126 152.481 111.299C151.81 113.157 151.162 115.027 150.515 116.897C149 121.271 147.484 125.649 145.658 129.889C144.952 132.26 143.995 135.263 143.145 137.403L143.181 137.392C142.781 138.322 142.412 139.269 142.046 140.21L142.046 140.211C140.187 144.988 138.384 149.622 132.737 151.256C131.305 151.68 129.714 151.526 128.125 151.372C127.452 151.307 126.779 151.241 126.12 151.22C125.833 151.22 125.333 150.865 125.333 150.651C125.261 148.732 125.225 146.812 125.261 144.893C125.261 144.75 125.976 144.43 126.298 144.466C127.037 144.537 127.754 144.558 128.451 144.535C129.861 144.256 131.456 143.567 132.526 142.105ZM108.93 158.578C105.782 152.921 100.133 153.178 95.6042 154.592C94.646 154.889 93.6826 155.344 92.7346 155.925C92.0973 155.865 91.2344 155.746 90.2882 155.526C90.306 155.5 90.3242 155.475 90.3427 155.449C90.1646 155.34 89.9908 155.206 89.8172 155.071C89.4445 154.781 89.0727 154.493 88.6607 154.464C87.72 154.393 86.7918 154.4 85.8628 154.406C85.0883 154.411 84.3128 154.417 83.5286 154.378C82.3211 154.335 81.8467 154.892 81.8467 156.007C81.8042 158.16 81.8035 160.355 81.8035 162.592L81.7553 162.66V176.545L81.7604 176.536V179.709C81.771 180.653 81.7647 181.458 81.7592 182.146C81.7428 184.229 81.7349 185.229 82.2334 185.704C82.6933 186.143 83.5854 186.135 85.2987 186.12H85.2998C86.0988 186.113 87.0765 186.104 88.2726 186.138C90.0839 186.181 90.6877 185.538 90.6446 183.781C90.5799 179.539 90.588 175.321 90.5961 171.091V171.087L90.5961 171.079V171.074C90.5988 169.668 90.6015 168.261 90.6015 166.851C90.6015 164.15 93.7929 160.678 96.4667 160.378C99.0975 160.078 100.391 160.979 100.866 163.593C101.081 164.707 101.124 165.865 101.124 166.979C101.124 168.836 101.129 170.694 101.134 172.551C101.144 176.266 101.153 179.98 101.124 183.695C101.124 185.367 101.599 186.267 103.453 186.095C104.747 185.967 106.041 185.967 107.335 186.095C109.275 186.267 110.009 185.624 109.966 183.567C109.873 179.587 109.891 175.607 109.908 171.627L109.908 171.623C109.915 170.032 109.922 168.441 109.922 166.851C109.922 163.979 113.286 160.464 116.176 160.336C118.677 160.207 119.928 161.15 120.273 163.636C120.445 164.75 120.489 165.908 120.489 167.022C120.489 168.848 120.493 170.678 120.498 172.51L120.498 172.515V172.523C120.508 176.192 120.517 179.867 120.489 183.524C120.489 185.324 121.179 186.181 123.033 186.053C123.847 186.004 124.675 186.011 125.5 186.018C126.119 186.023 126.736 186.028 127.346 186.01C128.726 186.01 129.373 185.41 129.373 183.909C129.34 181.248 129.357 178.581 129.374 175.912C129.402 171.574 129.43 167.233 129.243 162.907C128.941 156.821 125.189 152.406 117.383 153.992C115.368 154.463 113.495 155.683 111.583 156.929C110.713 157.496 109.834 158.069 108.93 158.578ZM142.526 171.737H159.217C163.788 171.737 163.917 171.737 163.4 167.108C162.149 155.664 151.713 151.72 143.303 155.064C135.324 158.235 132.909 165.822 134.375 173.623C136.101 182.666 142.656 185.795 150.634 185.538C156.025 185.324 160.079 182.538 162.408 177.609C162.624 177.137 162.537 176.109 162.192 175.894C160.726 174.823 155.723 175.809 154.688 177.18C152.618 179.966 149.556 180.823 146.365 179.452C143.605 178.252 142.009 175.251 142.526 171.737Z" fill="white"/>
    <defs>
        <linearGradient id="paint0_linear" x1="6.42293" y1="4.17006e-05" x2="397.702" y2="114.114" gradientUnits="userSpaceOnUse">
            <stop stop-color="#3CE3A3"/>
            <stop offset="1" stop-color="#00D2CF"/>
        </linearGradient>
    </defs>
</svg>
