<svg width="256" height="256" viewBox="0 0 256 256" fill="none" xmlns="http://www.w3.org/2000/svg">
    <path d="M0 64C0 28.6538 29.715 0 66.3704 0H189.63C226.285 0 256 28.6538 256 64V192C256 227.346 226.285 256 189.63 256H66.3704C29.715 256 0 227.346 0 192V64Z" fill="url(#paint0_linear)"/>
    <path fill-rule="evenodd" clip-rule="evenodd" d="M108.023 122L56 69.5768L67.4884 58L131 122L67.4884 186L56 174.423L108.023 122Z" fill="white"/>
    <path fill-rule="evenodd" clip-rule="evenodd" d="M148.023 123L96 70.5768L107.488 59L171 123L107.488 187L96 175.423L148.023 123Z" fill="white"/>
    <path opacity="0.7" d="M75.4673 47.7602L84.5312 45.4931C101.231 41.3161 118.897 46.2083 131.069 58.3804L143.17 70.4811L132 59.4444L184.104 111.548C184.363 111.807 184.613 112.071 184.855 112.341C191.05 120.086 190.662 131.388 183.621 138.694L132 191.803V191.936V191.936C122.49 203.891 106.981 209.355 92.0776 206.001L76.4673 202.487L96.6541 219.705C103.569 225.603 112.36 228.843 121.449 228.843V228.843C128.439 228.843 135.143 226.066 140.086 221.123L211.477 149.732C223.997 137.213 224.712 117.36 213.624 104.003C212.793 102.946 211.89 101.928 210.917 100.955L139.086 29.1235C134.143 24.1808 127.439 21.404 120.449 21.404V21.404C111.36 21.404 102.569 24.6439 95.6541 30.5421L75.4673 47.7602Z" fill="white" fill-opacity="0.6"/>
    <defs>
        <linearGradient id="paint0_linear" x1="357" y1="78" x2="216.421" y2="362.819" gradientUnits="userSpaceOnUse">
            <stop stop-color="#7EDE1F"/>
            <stop offset="1" stop-color="#45A907"/>
        </linearGradient>
    </defs>
</svg>
