<svg width="256" height="256" viewBox="0 0 256 256" fill="none" xmlns="http://www.w3.org/2000/svg">
    <path d="M0 64C0 28.6538 29.715 0 66.3704 0H189.63C226.285 0 256 28.6538 256 64V192C256 227.346 226.285 256 189.63 256H66.3704C29.715 256 0 227.346 0 192V64Z" fill="url(#paint0_linear)"/>
    <path d="M156.891 74.0398C158.192 73.3077 159.814 73.4865 160.924 74.4842V74.4842C162.692 76.074 162.38 78.9295 160.31 80.0993L97.6214 115.529C96.3957 116.221 94.8961 116.219 93.6728 115.522L65.1511 99.2679C63.554 98.3578 62.9531 96.3539 63.7859 94.7151V94.7151C64.6736 92.9681 66.8379 92.3127 68.5457 93.2738L93.6829 107.42C94.9012 108.105 96.389 108.105 97.6071 107.419L156.891 74.0398ZM143.617 65.8952C144.606 65.3357 145.808 65.306 146.823 65.8159V65.8159C149.256 67.0385 149.341 70.4812 146.971 71.8222L97.6066 99.7499C96.3889 100.439 94.8998 100.441 93.6797 99.7568L72.7839 88.0323C70.9011 86.9759 70.4452 84.4665 71.8361 82.8153V82.8153C72.9024 81.5496 74.7188 81.2223 76.1597 82.0364L93.6759 91.9323C94.8978 92.6226 96.3921 92.622 97.6135 91.9308L143.617 65.8952ZM166.812 84.2131C168.266 83.3908 170.104 83.7723 171.111 85.1053V85.1053C172.325 86.7128 171.846 89.0216 170.092 90.0133L97.6102 131.013C96.3906 131.703 94.8989 131.704 93.678 131.017L60.3311 112.236C59.0095 111.492 58.3511 109.954 58.725 108.484V108.484C59.2701 106.34 61.7026 105.3 63.6285 106.387L93.6801 123.349C94.9014 124.039 96.3946 124.038 97.6153 123.348L166.812 84.2131Z" fill="white"/>
    <path d="M180.573 102.546C182.857 108.882 184 115.521 184 122.47C184 129.419 182.857 136.16 180.573 142.697L179.013 146.84C175.794 154.294 171.275 160.939 165.454 166.764C159.535 172.48 152.784 176.876 145.196 179.942C137.201 183.316 128.943 185 120.419 185C111.794 185 103.536 183.31 95.6421 179.942C88.2646 176.876 81.5659 172.483 75.5399 166.764C69.6178 160.936 65.099 154.294 61.9835 146.84C58.6632 138.968 57 130.847 57 122.47V122.47C57 120.615 58.995 119.445 60.6138 120.35L93.6843 138.843C94.902 139.524 96.3867 139.521 97.6019 138.836L173.16 96.2115C175.268 95.0222 177.941 95.9631 178.84 98.2106L180.573 102.546Z" fill="white"/>
    <path opacity="0.47" fill-rule="evenodd" clip-rule="evenodd" d="M160.387 29.8755C162.144 28.8654 164.268 28.7057 166.122 29.5199L166.271 29.5852L166.289 29.5935L166.449 29.6641C171.13 31.7384 171.154 38.1174 166.713 40.6702L149.511 51.2819C148.363 51.9421 147.039 52.1125 145.757 51.7847C140.878 50.5373 139.128 42.8246 143.499 40.3112L160.387 29.8755ZM166.273 52.936C162.34 55.1856 162.397 61.0158 166.065 63.6805C167.973 65.0672 170.503 65.2814 172.548 64.1074L188.623 54.8768C192.424 52.6942 193.117 47.465 189.776 44.6202C189.687 44.5444 189.598 44.4689 189.509 44.3934C187.463 42.6632 184.562 42.4738 182.239 43.8028L166.273 52.936ZM199.746 62.855C202.528 61.2568 206.068 61.933 207.911 64.569C210.01 67.5706 208.953 71.6836 205.786 73.5037L190.558 82.2556C187.942 83.7587 184.628 82.8991 182.848 80.4539C180.744 77.562 181.427 73.3813 184.52 71.6039L199.746 62.855ZM121.442 198.305C163.326 198.305 197.28 164.381 197.28 122.533C197.28 114.711 196.093 107.165 193.891 100.066C192.729 96.3215 194.114 92.1594 197.518 90.2188L210.147 83.0189C214.113 80.7573 219.19 82.3835 220.744 86.6804C224.793 97.8727 227 109.945 227 122.533C227 180.781 179.74 228 121.442 228C83.7797 228 50.7242 208.293 32.0418 178.636C29.9591 175.33 31.2975 171.024 34.7641 169.221L48.7458 161.949C52.1262 160.191 56.2653 161.482 58.387 164.647C71.9933 184.943 95.1559 198.305 121.442 198.305Z" fill="white"/>
    <defs>
        <linearGradient id="paint0_linear" x1="357" y1="78" x2="216.421" y2="362.819" gradientUnits="userSpaceOnUse">
            <stop stop-color="#7EF56A"/>
            <stop offset="1" stop-color="#2FB454"/>
        </linearGradient>
    </defs>
</svg>
