<svg width="256" height="256" viewBox="0 0 256 256" fill="none" xmlns="http://www.w3.org/2000/svg">
    <path d="M0 64C0 28.6538 29.715 0 66.3704 0H189.63C226.285 0 256 28.6538 256 64V192C256 227.346 226.285 256 189.63 256H66.3704C29.715 256 0 227.346 0 192V64Z" fill="url(#paint0_linear)" />
    <path fill-rule="evenodd" clip-rule="evenodd" d="M166.93 106.656H57.13C53.0873 106.656 49.81 109.933 49.81 113.976V119.466H174.25V113.976C174.25 109.933 170.973 106.656 166.93 106.656ZM37 119.466V134.106V176.196C37 187.313 46.0125 196.326 57.13 196.326H166.93C178.048 196.326 187.06 187.313 187.06 176.196V134.106V119.466V113.976C187.06 102.858 178.048 93.8458 166.93 93.8458H57.13C46.0125 93.8458 37 102.858 37 113.976V119.466ZM174.25 176.196V134.106H49.81V176.196C49.81 180.239 53.0873 183.516 57.13 183.516H166.93C170.973 183.516 174.25 180.239 174.25 176.196ZM153.205 174.366C159.775 174.366 165.1 169.04 165.1 162.471C165.1 155.901 159.775 150.576 153.205 150.576C146.636 150.576 141.31 155.901 141.31 162.471C141.31 169.04 146.636 174.366 153.205 174.366Z" fill="white" />
    <path fill-rule="evenodd" clip-rule="evenodd" d="M166.93 106.656H57.13C53.0873 106.656 49.81 109.933 49.81 113.976V119.466H174.25V113.976C174.25 109.933 170.973 106.656 166.93 106.656ZM37 119.466V134.106V176.196C37 187.313 46.0125 196.326 57.13 196.326H166.93C178.048 196.326 187.06 187.313 187.06 176.196V134.106V119.466V113.976C187.06 102.858 178.048 93.8458 166.93 93.8458H57.13C46.0125 93.8458 37 102.858 37 113.976V119.466ZM174.25 176.196V134.106H49.81V176.196C49.81 180.239 53.0873 183.516 57.13 183.516H166.93C170.973 183.516 174.25 180.239 174.25 176.196ZM153.205 174.366C159.775 174.366 165.1 169.04 165.1 162.471C165.1 155.901 159.775 150.576 153.205 150.576C146.636 150.576 141.31 155.901 141.31 162.471C141.31 169.04 146.636 174.366 153.205 174.366Z" fill="white" />
    <g opacity="0.32">
        <path d="M170.59 84.6958H68.1099C68.1099 71.5569 78.761 60.9058 91.8999 60.9058H183.4C203.614 60.9058 220 77.2922 220 97.5058V143.256C220 156.395 209.349 167.046 196.21 167.046V110.316C196.21 96.1663 184.74 84.6958 170.59 84.6958Z" fill="white" />
        <path d="M170.59 84.6958H68.1099C68.1099 71.5569 78.761 60.9058 91.8999 60.9058H183.4C203.614 60.9058 220 77.2922 220 97.5058V143.256C220 156.395 209.349 167.046 196.21 167.046V110.316C196.21 96.1663 184.74 84.6958 170.59 84.6958Z" fill="white" />
    </g>
    <defs>
        <linearGradient id="paint0_linear" x1="6.42293" y1="4.17006e-05" x2="397.702" y2="114.114" gradientUnits="userSpaceOnUse">
            <stop stop-color="#8370FB" />
            <stop offset="1" stop-color="#6865FF" />
        </linearGradient>
    </defs>
</svg>